<svg class="rich-terminal" viewBox="0 0 994 635.5999999999999" xmlns="http://www.w3.org/2000/svg">
    <!-- Generated with Rich https://www.textualize.io -->
    <style>

    @font-face {
        font-family: "Fira Code";
        src: local("FiraCode-Regular"),
                url("https://cdnjs.cloudflare.com/ajax/libs/firacode/6.2.0/woff2/FiraCode-Regular.woff2") format("woff2"),
                url("https://cdnjs.cloudflare.com/ajax/libs/firacode/6.2.0/woff/FiraCode-Regular.woff") format("woff");
        font-style: normal;
        font-weight: 400;
    }
    @font-face {
        font-family: "Fira Code";
        src: local("FiraCode-Bold"),
                url("https://cdnjs.cloudflare.com/ajax/libs/firacode/6.2.0/woff2/FiraCode-Bold.woff2") format("woff2"),
                url("https://cdnjs.cloudflare.com/ajax/libs/firacode/6.2.0/woff/FiraCode-Bold.woff") format("woff");
        font-style: bold;
        font-weight: 700;
    }

    .terminal-701555825-matrix {
        font-family: Fira Code, monospace;
        font-size: 20px;
        line-height: 24.4px;
        font-variant-east-asian: full-width;
    }

    .terminal-701555825-title {
        font-size: 18px;
        font-weight: bold;
        font-family: arial;
    }

    .terminal-701555825-r1 { fill: #c5c8c6 }
.terminal-701555825-r2 { fill: #90908a }
.terminal-701555825-r3 { fill: #f92672 }
.terminal-701555825-r4 { fill: #f8f8f2 }
.terminal-701555825-r5 { fill: #a6e22e }
.terminal-701555825-r6 { fill: #66d9ef;font-style: italic; }
.terminal-701555825-r7 { fill: #e6db74 }
.terminal-701555825-r8 { fill: #c2c2bf }
.terminal-701555825-r9 { fill: #272822 }
    </style>

    <defs>
    <clipPath id="terminal-701555825-clip-terminal">
      <rect x="0" y="0" width="975.0" height="584.5999999999999" />
    </clipPath>
    <clipPath id="terminal-701555825-line-0">
    <rect x="0" y="1.5" width="976" height="24.65"/>
            </clipPath>
<clipPath id="terminal-701555825-line-1">
    <rect x="0" y="25.9" width="976" height="24.65"/>
            </clipPath>
<clipPath id="terminal-701555825-line-2">
    <rect x="0" y="50.3" width="976" height="24.65"/>
            </clipPath>
<clipPath id="terminal-701555825-line-3">
    <rect x="0" y="74.7" width="976" height="24.65"/>
            </clipPath>
<clipPath id="terminal-701555825-line-4">
    <rect x="0" y="99.1" width="976" height="24.65"/>
            </clipPath>
<clipPath id="terminal-701555825-line-5">
    <rect x="0" y="123.5" width="976" height="24.65"/>
            </clipPath>
<clipPath id="terminal-701555825-line-6">
    <rect x="0" y="147.9" width="976" height="24.65"/>
            </clipPath>
<clipPath id="terminal-701555825-line-7">
    <rect x="0" y="172.3" width="976" height="24.65"/>
            </clipPath>
<clipPath id="terminal-701555825-line-8">
    <rect x="0" y="196.7" width="976" height="24.65"/>
            </clipPath>
<clipPath id="terminal-701555825-line-9">
    <rect x="0" y="221.1" width="976" height="24.65"/>
            </clipPath>
<clipPath id="terminal-701555825-line-10">
    <rect x="0" y="245.5" width="976" height="24.65"/>
            </clipPath>
<clipPath id="terminal-701555825-line-11">
    <rect x="0" y="269.9" width="976" height="24.65"/>
            </clipPath>
<clipPath id="terminal-701555825-line-12">
    <rect x="0" y="294.3" width="976" height="24.65"/>
            </clipPath>
<clipPath id="terminal-701555825-line-13">
    <rect x="0" y="318.7" width="976" height="24.65"/>
            </clipPath>
<clipPath id="terminal-701555825-line-14">
    <rect x="0" y="343.1" width="976" height="24.65"/>
            </clipPath>
<clipPath id="terminal-701555825-line-15">
    <rect x="0" y="367.5" width="976" height="24.65"/>
            </clipPath>
<clipPath id="terminal-701555825-line-16">
    <rect x="0" y="391.9" width="976" height="24.65"/>
            </clipPath>
<clipPath id="terminal-701555825-line-17">
    <rect x="0" y="416.3" width="976" height="24.65"/>
            </clipPath>
<clipPath id="terminal-701555825-line-18">
    <rect x="0" y="440.7" width="976" height="24.65"/>
            </clipPath>
<clipPath id="terminal-701555825-line-19">
    <rect x="0" y="465.1" width="976" height="24.65"/>
            </clipPath>
<clipPath id="terminal-701555825-line-20">
    <rect x="0" y="489.5" width="976" height="24.65"/>
            </clipPath>
<clipPath id="terminal-701555825-line-21">
    <rect x="0" y="513.9" width="976" height="24.65"/>
            </clipPath>
<clipPath id="terminal-701555825-line-22">
    <rect x="0" y="538.3" width="976" height="24.65"/>
            </clipPath>
    </defs>

    <rect fill="#292929" stroke="rgba(255,255,255,0.35)" stroke-width="1" x="1" y="1" width="992" height="633.6" rx="8"/><text class="terminal-701555825-title" fill="#c5c8c6" text-anchor="middle" x="496" y="27">TextApp</text>
            <g transform="translate(26,22)">
            <circle cx="0" cy="0" r="7" fill="#ff5f57"/>
            <circle cx="22" cy="0" r="7" fill="#febc2e"/>
            <circle cx="44" cy="0" r="7" fill="#28c840"/>
            </g>
        
    <g transform="translate(9, 41)" clip-path="url(#terminal-701555825-clip-terminal)">
    <rect fill="#272822" x="0" y="1.5" width="12.2" height="24.65" shape-rendering="crispEdges"/><rect fill="#272822" x="12.2" y="1.5" width="48.8" height="24.65" shape-rendering="crispEdges"/><rect fill="#272822" x="61" y="1.5" width="48.8" height="24.65" shape-rendering="crispEdges"/><rect fill="#272822" x="109.8" y="1.5" width="158.6" height="24.65" shape-rendering="crispEdges"/><rect fill="#272822" x="268.4" y="1.5" width="73.2" height="24.65" shape-rendering="crispEdges"/><rect fill="#272822" x="341.6" y="1.5" width="244" height="24.65" shape-rendering="crispEdges"/><rect fill="#272822" x="585.6" y="1.5" width="378.2" height="24.65" shape-rendering="crispEdges"/><rect fill="#272822" x="963.8" y="1.5" width="12.2" height="24.65" shape-rendering="crispEdges"/><rect fill="#272822" x="0" y="25.9" width="12.2" height="24.65" shape-rendering="crispEdges"/><rect fill="#272822" x="12.2" y="25.9" width="48.8" height="24.65" shape-rendering="crispEdges"/><rect fill="#272822" x="61" y="25.9" width="48.8" height="24.65" shape-rendering="crispEdges"/><rect fill="#272822" x="109.8" y="25.9" width="219.6" height="24.65" shape-rendering="crispEdges"/><rect fill="#272822" x="329.4" y="25.9" width="73.2" height="24.65" shape-rendering="crispEdges"/><rect fill="#272822" x="402.6" y="25.9" width="146.4" height="24.65" shape-rendering="crispEdges"/><rect fill="#272822" x="549" y="25.9" width="414.8" height="24.65" shape-rendering="crispEdges"/><rect fill="#272822" x="963.8" y="25.9" width="12.2" height="24.65" shape-rendering="crispEdges"/><rect fill="#272822" x="0" y="50.3" width="12.2" height="24.65" shape-rendering="crispEdges"/><rect fill="#272822" x="12.2" y="50.3" width="48.8" height="24.65" shape-rendering="crispEdges"/><rect fill="#272822" x="61" y="50.3" width="12.2" height="24.65" shape-rendering="crispEdges"/><rect fill="#272822" x="73.2" y="50.3" width="890.6" height="24.65" shape-rendering="crispEdges"/><rect fill="#272822" x="963.8" y="50.3" width="12.2" height="24.65" shape-rendering="crispEdges"/><rect fill="#272822" x="0" y="74.7" width="12.2" height="24.65" shape-rendering="crispEdges"/><rect fill="#272822" x="12.2" y="74.7" width="48.8" height="24.65" shape-rendering="crispEdges"/><rect fill="#272822" x="61" y="74.7" width="12.2" height="24.65" shape-rendering="crispEdges"/><rect fill="#272822" x="73.2" y="74.7" width="890.6" height="24.65" shape-rendering="crispEdges"/><rect fill="#272822" x="963.8" y="74.7" width="12.2" height="24.65" shape-rendering="crispEdges"/><rect fill="#272822" x="0" y="99.1" width="12.2" height="24.65" shape-rendering="crispEdges"/><rect fill="#272822" x="12.2" y="99.1" width="48.8" height="24.65" shape-rendering="crispEdges"/><rect fill="#272822" x="61" y="99.1" width="61" height="24.65" shape-rendering="crispEdges"/><rect fill="#272822" x="122" y="99.1" width="12.2" height="24.65" shape-rendering="crispEdges"/><rect fill="#272822" x="134.2" y="99.1" width="85.4" height="24.65" shape-rendering="crispEdges"/><rect fill="#272822" x="219.6" y="99.1" width="268.4" height="24.65" shape-rendering="crispEdges"/><rect fill="#272822" x="488" y="99.1" width="12.2" height="24.65" shape-rendering="crispEdges"/><rect fill="#272822" x="500.2" y="99.1" width="61" height="24.65" shape-rendering="crispEdges"/><rect fill="#272822" x="561.2" y="99.1" width="36.6" height="24.65" shape-rendering="crispEdges"/><rect fill="#272822" x="597.8" y="99.1" width="366" height="24.65" shape-rendering="crispEdges"/><rect fill="#272822" x="963.8" y="99.1" width="12.2" height="24.65" shape-rendering="crispEdges"/><rect fill="#272822" x="0" y="123.5" width="12.2" height="24.65" shape-rendering="crispEdges"/><rect fill="#272822" x="12.2" y="123.5" width="48.8" height="24.65" shape-rendering="crispEdges"/><rect fill="#272822" x="61" y="123.5" width="48.8" height="24.65" shape-rendering="crispEdges"/><rect fill="#272822" x="109.8" y="123.5" width="36.6" height="24.65" shape-rendering="crispEdges"/><rect fill="#272822" x="146.4" y="123.5" width="12.2" height="24.65" shape-rendering="crispEdges"/><rect fill="#272822" x="158.6" y="123.5" width="85.4" height="24.65" shape-rendering="crispEdges"/><rect fill="#272822" x="244" y="123.5" width="85.4" height="24.65" shape-rendering="crispEdges"/><rect fill="#272822" x="329.4" y="123.5" width="24.4" height="24.65" shape-rendering="crispEdges"/><rect fill="#272822" x="353.8" y="123.5" width="195.2" height="24.65" shape-rendering="crispEdges"/><rect fill="#272822" x="549" y="123.5" width="414.8" height="24.65" shape-rendering="crispEdges"/><rect fill="#272822" x="963.8" y="123.5" width="12.2" height="24.65" shape-rendering="crispEdges"/><rect fill="#272822" x="0" y="147.9" width="12.2" height="24.65" shape-rendering="crispEdges"/><rect fill="#272822" x="12.2" y="147.9" width="48.8" height="24.65" shape-rendering="crispEdges"/><rect fill="#272822" x="61" y="147.9" width="244" height="24.65" shape-rendering="crispEdges"/><rect fill="#272822" x="305" y="147.9" width="12.2" height="24.65" shape-rendering="crispEdges"/><rect fill="#272822" x="317.2" y="147.9" width="12.2" height="24.65" shape-rendering="crispEdges"/><rect fill="#272822" x="329.4" y="147.9" width="122" height="24.65" shape-rendering="crispEdges"/><rect fill="#272822" x="451.4" y="147.9" width="24.4" height="24.65" shape-rendering="crispEdges"/><rect fill="#272822" x="475.8" y="147.9" width="488" height="24.65" shape-rendering="crispEdges"/><rect fill="#272822" x="963.8" y="147.9" width="12.2" height="24.65" shape-rendering="crispEdges"/><rect fill="#272822" x="0" y="172.3" width="12.2" height="24.65" shape-rendering="crispEdges"/><rect fill="#272822" x="12.2" y="172.3" width="48.8" height="24.65" shape-rendering="crispEdges"/><rect fill="#272822" x="61" y="172.3" width="146.4" height="24.65" shape-rendering="crispEdges"/><rect fill="#65686a" x="207.4" y="172.3" width="97.6" height="24.65" shape-rendering="crispEdges"/><rect fill="#65686a" x="305" y="172.3" width="12.2" height="24.65" shape-rendering="crispEdges"/><rect fill="#65686a" x="317.2" y="172.3" width="97.6" height="24.65" shape-rendering="crispEdges"/><rect fill="#65686a" x="414.8" y="172.3" width="12.2" height="24.65" shape-rendering="crispEdges"/><rect fill="#272822" x="427" y="172.3" width="12.2" height="24.65" shape-rendering="crispEdges"/><rect fill="#272822" x="439.2" y="172.3" width="524.6" height="24.65" shape-rendering="crispEdges"/><rect fill="#272822" x="963.8" y="172.3" width="12.2" height="24.65" shape-rendering="crispEdges"/><rect fill="#272822" x="0" y="196.7" width="12.2" height="24.65" shape-rendering="crispEdges"/><rect fill="#3e3d32" x="12.2" y="196.7" width="48.8" height="24.65" shape-rendering="crispEdges"/><rect fill="#65686a" x="61" y="196.7" width="146.4" height="24.65" shape-rendering="crispEdges"/><rect fill="#f8f8f0" x="207.4" y="196.7" width="12.2" height="24.65" shape-rendering="crispEdges"/><rect fill="#3e3d32" x="219.6" y="196.7" width="48.8" height="24.65" shape-rendering="crispEdges"/><rect fill="#3e3d32" x="268.4" y="196.7" width="12.2" height="24.65" shape-rendering="crispEdges"/><rect fill="#3e3d32" x="280.6" y="196.7" width="109.8" height="24.65" shape-rendering="crispEdges"/><rect fill="#3e3d32" x="390.4" y="196.7" width="573.4" height="24.65" shape-rendering="crispEdges"/><rect fill="#272822" x="963.8" y="196.7" width="12.2" height="24.65" shape-rendering="crispEdges"/><rect fill="#272822" x="0" y="221.1" width="12.2" height="24.65" shape-rendering="crispEdges"/><rect fill="#272822" x="12.2" y="221.1" width="48.8" height="24.65" shape-rendering="crispEdges"/><rect fill="#272822" x="61" y="221.1" width="390.4" height="24.65" shape-rendering="crispEdges"/><rect fill="#272822" x="451.4" y="221.1" width="12.2" height="24.65" shape-rendering="crispEdges"/><rect fill="#272822" x="463.6" y="221.1" width="48.8" height="24.65" shape-rendering="crispEdges"/><rect fill="#272822" x="512.4" y="221.1" width="24.4" height="24.65" shape-rendering="crispEdges"/><rect fill="#272822" x="536.8" y="221.1" width="427" height="24.65" shape-rendering="crispEdges"/><rect fill="#272822" x="963.8" y="221.1" width="12.2" height="24.65" shape-rendering="crispEdges"/><rect fill="#272822" x="0" y="245.5" width="12.2" height="24.65" shape-rendering="crispEdges"/><rect fill="#272822" x="12.2" y="245.5" width="48.8" height="24.65" shape-rendering="crispEdges"/><rect fill="#272822" x="61" y="245.5" width="122" height="24.65" shape-rendering="crispEdges"/><rect fill="#272822" x="183" y="245.5" width="780.8" height="24.65" shape-rendering="crispEdges"/><rect fill="#272822" x="963.8" y="245.5" width="12.2" height="24.65" shape-rendering="crispEdges"/><rect fill="#272822" x="0" y="269.9" width="12.2" height="24.65" shape-rendering="crispEdges"/><rect fill="#272822" x="12.2" y="269.9" width="48.8" height="24.65" shape-rendering="crispEdges"/><rect fill="#272822" x="61" y="269.9" width="97.6" height="24.65" shape-rendering="crispEdges"/><rect fill="#272822" x="158.6" y="269.9" width="61" height="24.65" shape-rendering="crispEdges"/><rect fill="#272822" x="219.6" y="269.9" width="158.6" height="24.65" shape-rendering="crispEdges"/><rect fill="#272822" x="378.2" y="269.9" width="585.6" height="24.65" shape-rendering="crispEdges"/><rect fill="#272822" x="963.8" y="269.9" width="12.2" height="24.65" shape-rendering="crispEdges"/><rect fill="#272822" x="0" y="294.3" width="12.2" height="24.65" shape-rendering="crispEdges"/><rect fill="#272822" x="12.2" y="294.3" width="48.8" height="24.65" shape-rendering="crispEdges"/><rect fill="#272822" x="61" y="294.3" width="12.2" height="24.65" shape-rendering="crispEdges"/><rect fill="#272822" x="73.2" y="294.3" width="890.6" height="24.65" shape-rendering="crispEdges"/><rect fill="#272822" x="963.8" y="294.3" width="12.2" height="24.65" shape-rendering="crispEdges"/><rect fill="#272822" x="0" y="318.7" width="12.2" height="24.65" shape-rendering="crispEdges"/><rect fill="#272822" x="12.2" y="318.7" width="48.8" height="24.65" shape-rendering="crispEdges"/><rect fill="#272822" x="61" y="318.7" width="48.8" height="24.65" shape-rendering="crispEdges"/><rect fill="#272822" x="109.8" y="318.7" width="36.6" height="24.65" shape-rendering="crispEdges"/><rect fill="#272822" x="146.4" y="318.7" width="12.2" height="24.65" shape-rendering="crispEdges"/><rect fill="#272822" x="158.6" y="318.7" width="97.6" height="24.65" shape-rendering="crispEdges"/><rect fill="#272822" x="256.2" y="318.7" width="85.4" height="24.65" shape-rendering="crispEdges"/><rect fill="#272822" x="341.6" y="318.7" width="24.4" height="24.65" shape-rendering="crispEdges"/><rect fill="#272822" x="366" y="318.7" width="85.4" height="24.65" shape-rendering="crispEdges"/><rect fill="#272822" x="451.4" y="318.7" width="512.4" height="24.65" shape-rendering="crispEdges"/><rect fill="#272822" x="963.8" y="318.7" width="12.2" height="24.65" shape-rendering="crispEdges"/><rect fill="#272822" x="0" y="343.1" width="12.2" height="24.65" shape-rendering="crispEdges"/><rect fill="#272822" x="12.2" y="343.1" width="48.8" height="24.65" shape-rendering="crispEdges"/><rect fill="#272822" x="61" y="343.1" width="244" height="24.65" shape-rendering="crispEdges"/><rect fill="#272822" x="305" y="343.1" width="61" height="24.65" shape-rendering="crispEdges"/><rect fill="#272822" x="366" y="343.1" width="36.6" height="24.65" shape-rendering="crispEdges"/><rect fill="#272822" x="402.6" y="343.1" width="561.2" height="24.65" shape-rendering="crispEdges"/><rect fill="#272822" x="963.8" y="343.1" width="12.2" height="24.65" shape-rendering="crispEdges"/><rect fill="#272822" x="0" y="367.5" width="12.2" height="24.65" shape-rendering="crispEdges"/><rect fill="#272822" x="12.2" y="367.5" width="48.8" height="24.65" shape-rendering="crispEdges"/><rect fill="#272822" x="61" y="367.5" width="12.2" height="24.65" shape-rendering="crispEdges"/><rect fill="#272822" x="73.2" y="367.5" width="890.6" height="24.65" shape-rendering="crispEdges"/><rect fill="#272822" x="963.8" y="367.5" width="12.2" height="24.65" shape-rendering="crispEdges"/><rect fill="#272822" x="0" y="391.9" width="12.2" height="24.65" shape-rendering="crispEdges"/><rect fill="#272822" x="12.2" y="391.9" width="48.8" height="24.65" shape-rendering="crispEdges"/><rect fill="#272822" x="61" y="391.9" width="12.2" height="24.65" shape-rendering="crispEdges"/><rect fill="#272822" x="73.2" y="391.9" width="890.6" height="24.65" shape-rendering="crispEdges"/><rect fill="#272822" x="963.8" y="391.9" width="12.2" height="24.65" shape-rendering="crispEdges"/><rect fill="#272822" x="0" y="416.3" width="12.2" height="24.65" shape-rendering="crispEdges"/><rect fill="#272822" x="12.2" y="416.3" width="48.8" height="24.65" shape-rendering="crispEdges"/><rect fill="#272822" x="61" y="416.3" width="24.4" height="24.65" shape-rendering="crispEdges"/><rect fill="#272822" x="85.4" y="416.3" width="122" height="24.65" shape-rendering="crispEdges"/><rect fill="#272822" x="207.4" y="416.3" width="24.4" height="24.65" shape-rendering="crispEdges"/><rect fill="#272822" x="231.8" y="416.3" width="12.2" height="24.65" shape-rendering="crispEdges"/><rect fill="#272822" x="244" y="416.3" width="122" height="24.65" shape-rendering="crispEdges"/><rect fill="#272822" x="366" y="416.3" width="24.4" height="24.65" shape-rendering="crispEdges"/><rect fill="#272822" x="390.4" y="416.3" width="573.4" height="24.65" shape-rendering="crispEdges"/><rect fill="#272822" x="963.8" y="416.3" width="12.2" height="24.65" shape-rendering="crispEdges"/><rect fill="#272822" x="0" y="440.7" width="12.2" height="24.65" shape-rendering="crispEdges"/><rect fill="#272822" x="12.2" y="440.7" width="48.8" height="24.65" shape-rendering="crispEdges"/><rect fill="#272822" x="61" y="440.7" width="97.6" height="24.65" shape-rendering="crispEdges"/><rect fill="#272822" x="158.6" y="440.7" width="12.2" height="24.65" shape-rendering="crispEdges"/><rect fill="#272822" x="170.8" y="440.7" width="12.2" height="24.65" shape-rendering="crispEdges"/><rect fill="#272822" x="183" y="440.7" width="85.4" height="24.65" shape-rendering="crispEdges"/><rect fill="#272822" x="268.4" y="440.7" width="36.6" height="24.65" shape-rendering="crispEdges"/><rect fill="#272822" x="305" y="440.7" width="658.8" height="24.65" shape-rendering="crispEdges"/><rect fill="#272822" x="963.8" y="440.7" width="12.2" height="24.65" shape-rendering="crispEdges"/><rect fill="#272822" x="0" y="465.1" width="12.2" height="24.65" shape-rendering="crispEdges"/><rect fill="#272822" x="12.2" y="465.1" width="48.8" height="24.65" shape-rendering="crispEdges"/><rect fill="#272822" x="61" y="465.1" width="97.6" height="24.65" shape-rendering="crispEdges"/><rect fill="#272822" x="158.6" y="465.1" width="36.6" height="24.65" shape-rendering="crispEdges"/><rect fill="#272822" x="195.2" y="465.1" width="36.6" height="24.65" shape-rendering="crispEdges"/><rect fill="#272822" x="231.8" y="465.1" width="732" height="24.65" shape-rendering="crispEdges"/><rect fill="#272822" x="963.8" y="465.1" width="12.2" height="24.65" shape-rendering="crispEdges"/><rect fill="#272822" x="0" y="489.5" width="12.2" height="24.65" shape-rendering="crispEdges"/><rect fill="#272822" x="12.2" y="489.5" width="48.8" height="24.65" shape-rendering="crispEdges"/><rect fill="#272822" x="61" y="489.5" width="12.2" height="24.65" shape-rendering="crispEdges"/><rect fill="#272822" x="73.2" y="489.5" width="890.6" height="24.65" shape-rendering="crispEdges"/><rect fill="#272822" x="963.8" y="489.5" width="12.2" height="24.65" shape-rendering="crispEdges"/><rect fill="#272822" x="0" y="513.9" width="12.2" height="24.65" shape-rendering="crispEdges"/><rect fill="#272822" x="12.2" y="513.9" width="951.6" height="24.65" shape-rendering="crispEdges"/><rect fill="#272822" x="963.8" y="513.9" width="12.2" height="24.65" shape-rendering="crispEdges"/><rect fill="#272822" x="0" y="538.3" width="12.2" height="24.65" shape-rendering="crispEdges"/><rect fill="#272822" x="12.2" y="538.3" width="951.6" height="24.65" shape-rendering="crispEdges"/><rect fill="#272822" x="963.8" y="538.3" width="12.2" height="24.65" shape-rendering="crispEdges"/><rect fill="#272822" x="0" y="562.7" width="12.2" height="24.65" shape-rendering="crispEdges"/><rect fill="#272822" x="12.2" y="562.7" width="951.6" height="24.65" shape-rendering="crispEdges"/><rect fill="#272822" x="963.8" y="562.7" width="12.2" height="24.65" shape-rendering="crispEdges"/>
    <g class="terminal-701555825-matrix">
    <text class="terminal-701555825-r2" x="12.2" y="20" textLength="48.8" clip-path="url(#terminal-701555825-line-0)">&#160;1&#160;&#160;</text><text class="terminal-701555825-r3" x="61" y="20" textLength="48.8" clip-path="url(#terminal-701555825-line-0)">from</text><text class="terminal-701555825-r4" x="109.8" y="20" textLength="158.6" clip-path="url(#terminal-701555825-line-0)">&#160;textual.app&#160;</text><text class="terminal-701555825-r3" x="268.4" y="20" textLength="73.2" clip-path="url(#terminal-701555825-line-0)">import</text><text class="terminal-701555825-r4" x="341.6" y="20" textLength="244" clip-path="url(#terminal-701555825-line-0)">&#160;App,&#160;ComposeResult&#160;</text><text class="terminal-701555825-r1" x="976" y="20" textLength="12.2" clip-path="url(#terminal-701555825-line-0)">
</text><text class="terminal-701555825-r2" x="12.2" y="44.4" textLength="48.8" clip-path="url(#terminal-701555825-line-1)">&#160;2&#160;&#160;</text><text class="terminal-701555825-r3" x="61" y="44.4" textLength="48.8" clip-path="url(#terminal-701555825-line-1)">from</text><text class="terminal-701555825-r4" x="109.8" y="44.4" textLength="219.6" clip-path="url(#terminal-701555825-line-1)">&#160;textual_textarea&#160;</text><text class="terminal-701555825-r3" x="329.4" y="44.4" textLength="73.2" clip-path="url(#terminal-701555825-line-1)">import</text><text class="terminal-701555825-r4" x="402.6" y="44.4" textLength="146.4" clip-path="url(#terminal-701555825-line-1)">&#160;TextEditor&#160;</text><text class="terminal-701555825-r1" x="976" y="44.4" textLength="12.2" clip-path="url(#terminal-701555825-line-1)">
</text><text class="terminal-701555825-r2" x="12.2" y="68.8" textLength="48.8" clip-path="url(#terminal-701555825-line-2)">&#160;3&#160;&#160;</text><text class="terminal-701555825-r1" x="976" y="68.8" textLength="12.2" clip-path="url(#terminal-701555825-line-2)">
</text><text class="terminal-701555825-r2" x="12.2" y="93.2" textLength="48.8" clip-path="url(#terminal-701555825-line-3)">&#160;4&#160;&#160;</text><text class="terminal-701555825-r1" x="976" y="93.2" textLength="12.2" clip-path="url(#terminal-701555825-line-3)">
</text><text class="terminal-701555825-r2" x="12.2" y="117.6" textLength="48.8" clip-path="url(#terminal-701555825-line-4)">&#160;5&#160;&#160;</text><text class="terminal-701555825-r3" x="61" y="117.6" textLength="61" clip-path="url(#terminal-701555825-line-4)">class</text><text class="terminal-701555825-r5" x="134.2" y="117.6" textLength="85.4" clip-path="url(#terminal-701555825-line-4)">TextApp</text><text class="terminal-701555825-r4" x="219.6" y="117.6" textLength="268.4" clip-path="url(#terminal-701555825-line-4)">(App,&#160;inherit_bindings</text><text class="terminal-701555825-r3" x="488" y="117.6" textLength="12.2" clip-path="url(#terminal-701555825-line-4)">=</text><text class="terminal-701555825-r6" x="500.2" y="117.6" textLength="61" clip-path="url(#terminal-701555825-line-4)">False</text><text class="terminal-701555825-r4" x="561.2" y="117.6" textLength="36.6" clip-path="url(#terminal-701555825-line-4)">):&#160;</text><text class="terminal-701555825-r1" x="976" y="117.6" textLength="12.2" clip-path="url(#terminal-701555825-line-4)">
</text><text class="terminal-701555825-r2" x="12.2" y="142" textLength="48.8" clip-path="url(#terminal-701555825-line-5)">&#160;6&#160;&#160;</text><text class="terminal-701555825-r3" x="109.8" y="142" textLength="36.6" clip-path="url(#terminal-701555825-line-5)">def</text><text class="terminal-701555825-r5" x="158.6" y="142" textLength="85.4" clip-path="url(#terminal-701555825-line-5)">compose</text><text class="terminal-701555825-r4" x="244" y="142" textLength="85.4" clip-path="url(#terminal-701555825-line-5)">(self)&#160;</text><text class="terminal-701555825-r3" x="329.4" y="142" textLength="24.4" clip-path="url(#terminal-701555825-line-5)">-&gt;</text><text class="terminal-701555825-r4" x="353.8" y="142" textLength="195.2" clip-path="url(#terminal-701555825-line-5)">&#160;ComposeResult:&#160;</text><text class="terminal-701555825-r1" x="976" y="142" textLength="12.2" clip-path="url(#terminal-701555825-line-5)">
</text><text class="terminal-701555825-r2" x="12.2" y="166.4" textLength="48.8" clip-path="url(#terminal-701555825-line-6)">&#160;7&#160;&#160;</text><text class="terminal-701555825-r4" x="61" y="166.4" textLength="244" clip-path="url(#terminal-701555825-line-6)">&#160;&#160;&#160;&#160;&#160;&#160;&#160;&#160;self.editor&#160;</text><text class="terminal-701555825-r3" x="305" y="166.4" textLength="12.2" clip-path="url(#terminal-701555825-line-6)">=</text><text class="terminal-701555825-r5" x="329.4" y="166.4" textLength="122" clip-path="url(#terminal-701555825-line-6)">TextEditor</text><text class="terminal-701555825-r4" x="451.4" y="166.4" textLength="24.4" clip-path="url(#terminal-701555825-line-6)">(&#160;</text><text class="terminal-701555825-r1" x="976" y="166.4" textLength="12.2" clip-path="url(#terminal-701555825-line-6)">
</text><text class="terminal-701555825-r2" x="12.2" y="190.8" textLength="48.8" clip-path="url(#terminal-701555825-line-7)">&#160;8&#160;&#160;</text><text class="terminal-701555825-r4" x="207.4" y="190.8" textLength="97.6" clip-path="url(#terminal-701555825-line-7)">language</text><text class="terminal-701555825-r3" x="305" y="190.8" textLength="12.2" clip-path="url(#terminal-701555825-line-7)">=</text><text class="terminal-701555825-r7" x="317.2" y="190.8" textLength="97.6" clip-path="url(#terminal-701555825-line-7)">&quot;python&quot;</text><text class="terminal-701555825-r4" x="414.8" y="190.8" textLength="12.2" clip-path="url(#terminal-701555825-line-7)">,</text><text class="terminal-701555825-r1" x="976" y="190.8" textLength="12.2" clip-path="url(#terminal-701555825-line-7)">
</text><text class="terminal-701555825-r8" x="12.2" y="215.2" textLength="48.8" clip-path="url(#terminal-701555825-line-8)">&#160;9&#160;&#160;</text><text class="terminal-701555825-r9" x="207.4" y="215.2" textLength="12.2" clip-path="url(#terminal-701555825-line-8)">t</text><text class="terminal-701555825-r4" x="219.6" y="215.2" textLength="48.8" clip-path="url(#terminal-701555825-line-8)">heme</text><text class="terminal-701555825-r3" x="268.4" y="215.2" textLength="12.2" clip-path="url(#terminal-701555825-line-8)">=</text><text class="terminal-701555825-r7" x="280.6" y="215.2" textLength="109.8" clip-path="url(#terminal-701555825-line-8)">&quot;monokai&quot;</text><text class="terminal-701555825-r4" x="390.4" y="215.2" textLength="573.4" clip-path="url(#terminal-701555825-line-8)">,&#160;&#160;&#160;&#160;&#160;&#160;&#160;&#160;&#160;&#160;&#160;&#160;&#160;&#160;&#160;&#160;&#160;&#160;&#160;&#160;&#160;&#160;&#160;&#160;&#160;&#160;&#160;&#160;&#160;&#160;&#160;&#160;&#160;&#160;&#160;&#160;&#160;&#160;&#160;&#160;&#160;&#160;&#160;&#160;&#160;&#160;</text><text class="terminal-701555825-r1" x="976" y="215.2" textLength="12.2" clip-path="url(#terminal-701555825-line-8)">
</text><text class="terminal-701555825-r2" x="12.2" y="239.6" textLength="48.8" clip-path="url(#terminal-701555825-line-9)">10&#160;&#160;</text><text class="terminal-701555825-r4" x="61" y="239.6" textLength="390.4" clip-path="url(#terminal-701555825-line-9)">&#160;&#160;&#160;&#160;&#160;&#160;&#160;&#160;&#160;&#160;&#160;&#160;use_system_clipboard</text><text class="terminal-701555825-r3" x="451.4" y="239.6" textLength="12.2" clip-path="url(#terminal-701555825-line-9)">=</text><text class="terminal-701555825-r6" x="463.6" y="239.6" textLength="48.8" clip-path="url(#terminal-701555825-line-9)">True</text><text class="terminal-701555825-r4" x="512.4" y="239.6" textLength="24.4" clip-path="url(#terminal-701555825-line-9)">,&#160;</text><text class="terminal-701555825-r1" x="976" y="239.6" textLength="12.2" clip-path="url(#terminal-701555825-line-9)">
</text><text class="terminal-701555825-r2" x="12.2" y="264" textLength="48.8" clip-path="url(#terminal-701555825-line-10)">11&#160;&#160;</text><text class="terminal-701555825-r4" x="61" y="264" textLength="122" clip-path="url(#terminal-701555825-line-10)">&#160;&#160;&#160;&#160;&#160;&#160;&#160;&#160;)&#160;</text><text class="terminal-701555825-r1" x="976" y="264" textLength="12.2" clip-path="url(#terminal-701555825-line-10)">
</text><text class="terminal-701555825-r2" x="12.2" y="288.4" textLength="48.8" clip-path="url(#terminal-701555825-line-11)">12&#160;&#160;</text><text class="terminal-701555825-r3" x="158.6" y="288.4" textLength="61" clip-path="url(#terminal-701555825-line-11)">yield</text><text class="terminal-701555825-r4" x="219.6" y="288.4" textLength="158.6" clip-path="url(#terminal-701555825-line-11)">&#160;self.editor&#160;</text><text class="terminal-701555825-r1" x="976" y="288.4" textLength="12.2" clip-path="url(#terminal-701555825-line-11)">
</text><text class="terminal-701555825-r2" x="12.2" y="312.8" textLength="48.8" clip-path="url(#terminal-701555825-line-12)">13&#160;&#160;</text><text class="terminal-701555825-r1" x="976" y="312.8" textLength="12.2" clip-path="url(#terminal-701555825-line-12)">
</text><text class="terminal-701555825-r2" x="12.2" y="337.2" textLength="48.8" clip-path="url(#terminal-701555825-line-13)">14&#160;&#160;</text><text class="terminal-701555825-r3" x="109.8" y="337.2" textLength="36.6" clip-path="url(#terminal-701555825-line-13)">def</text><text class="terminal-701555825-r5" x="158.6" y="337.2" textLength="97.6" clip-path="url(#terminal-701555825-line-13)">on_mount</text><text class="terminal-701555825-r4" x="256.2" y="337.2" textLength="85.4" clip-path="url(#terminal-701555825-line-13)">(self)&#160;</text><text class="terminal-701555825-r3" x="341.6" y="337.2" textLength="24.4" clip-path="url(#terminal-701555825-line-13)">-&gt;</text><text class="terminal-701555825-r4" x="366" y="337.2" textLength="85.4" clip-path="url(#terminal-701555825-line-13)">&#160;None:&#160;</text><text class="terminal-701555825-r1" x="976" y="337.2" textLength="12.2" clip-path="url(#terminal-701555825-line-13)">
</text><text class="terminal-701555825-r2" x="12.2" y="361.6" textLength="48.8" clip-path="url(#terminal-701555825-line-14)">15&#160;&#160;</text><text class="terminal-701555825-r4" x="61" y="361.6" textLength="244" clip-path="url(#terminal-701555825-line-14)">&#160;&#160;&#160;&#160;&#160;&#160;&#160;&#160;self.editor.</text><text class="terminal-701555825-r5" x="305" y="361.6" textLength="61" clip-path="url(#terminal-701555825-line-14)">focus</text><text class="terminal-701555825-r4" x="366" y="361.6" textLength="36.6" clip-path="url(#terminal-701555825-line-14)">()&#160;</text><text class="terminal-701555825-r1" x="976" y="361.6" textLength="12.2" clip-path="url(#terminal-701555825-line-14)">
</text><text class="terminal-701555825-r2" x="12.2" y="386" textLength="48.8" clip-path="url(#terminal-701555825-line-15)">16&#160;&#160;</text><text class="terminal-701555825-r1" x="976" y="386" textLength="12.2" clip-path="url(#terminal-701555825-line-15)">
</text><text class="terminal-701555825-r2" x="12.2" y="410.4" textLength="48.8" clip-path="url(#terminal-701555825-line-16)">17&#160;&#160;</text><text class="terminal-701555825-r1" x="976" y="410.4" textLength="12.2" clip-path="url(#terminal-701555825-line-16)">
</text><text class="terminal-701555825-r2" x="12.2" y="434.8" textLength="48.8" clip-path="url(#terminal-701555825-line-17)">18&#160;&#160;</text><text class="terminal-701555825-r3" x="61" y="434.8" textLength="24.4" clip-path="url(#terminal-701555825-line-17)">if</text><text class="terminal-701555825-r4" x="85.4" y="434.8" textLength="122" clip-path="url(#terminal-701555825-line-17)">&#160;__name__&#160;</text><text class="terminal-701555825-r3" x="207.4" y="434.8" textLength="24.4" clip-path="url(#terminal-701555825-line-17)">==</text><text class="terminal-701555825-r7" x="244" y="434.8" textLength="122" clip-path="url(#terminal-701555825-line-17)">&quot;__main__&quot;</text><text class="terminal-701555825-r4" x="366" y="434.8" textLength="24.4" clip-path="url(#terminal-701555825-line-17)">:&#160;</text><text class="terminal-701555825-r1" x="976" y="434.8" textLength="12.2" clip-path="url(#terminal-701555825-line-17)">
</text><text class="terminal-701555825-r2" x="12.2" y="459.2" textLength="48.8" clip-path="url(#terminal-701555825-line-18)">19&#160;&#160;</text><text class="terminal-701555825-r4" x="61" y="459.2" textLength="97.6" clip-path="url(#terminal-701555825-line-18)">&#160;&#160;&#160;&#160;app&#160;</text><text class="terminal-701555825-r3" x="158.6" y="459.2" textLength="12.2" clip-path="url(#terminal-701555825-line-18)">=</text><text class="terminal-701555825-r5" x="183" y="459.2" textLength="85.4" clip-path="url(#terminal-701555825-line-18)">TextApp</text><text class="terminal-701555825-r4" x="268.4" y="459.2" textLength="36.6" clip-path="url(#terminal-701555825-line-18)">()&#160;</text><text class="terminal-701555825-r1" x="976" y="459.2" textLength="12.2" clip-path="url(#terminal-701555825-line-18)">
</text><text class="terminal-701555825-r2" x="12.2" y="483.6" textLength="48.8" clip-path="url(#terminal-701555825-line-19)">20&#160;&#160;</text><text class="terminal-701555825-r4" x="61" y="483.6" textLength="97.6" clip-path="url(#terminal-701555825-line-19)">&#160;&#160;&#160;&#160;app.</text><text class="terminal-701555825-r5" x="158.6" y="483.6" textLength="36.6" clip-path="url(#terminal-701555825-line-19)">run</text><text class="terminal-701555825-r4" x="195.2" y="483.6" textLength="36.6" clip-path="url(#terminal-701555825-line-19)">()&#160;</text><text class="terminal-701555825-r1" x="976" y="483.6" textLength="12.2" clip-path="url(#terminal-701555825-line-19)">
</text><text class="terminal-701555825-r2" x="12.2" y="508" textLength="48.8" clip-path="url(#terminal-701555825-line-20)">21&#160;&#160;</text><text class="terminal-701555825-r1" x="976" y="508" textLength="12.2" clip-path="url(#terminal-701555825-line-20)">
</text><text class="terminal-701555825-r1" x="976" y="532.4" textLength="12.2" clip-path="url(#terminal-701555825-line-21)">
</text><text class="terminal-701555825-r1" x="976" y="556.8" textLength="12.2" clip-path="url(#terminal-701555825-line-22)">
</text>
    </g>
    </g>
</svg>
